<?xml version="1.0" encoding="UTF-8" standalone="no"?>
<!DOCTYPE svg PUBLIC "-//W3C//DTD SVG 1.1//EN" "http://www.w3.org/Graphics/SVG/1.1/DTD/svg11.dtd">
<svg width="100%" height="100%" viewBox="0 0 329 200" version="1.1" xmlns="http://www.w3.org/2000/svg" xmlns:xlink="http://www.w3.org/1999/xlink" xml:space="preserve" xmlns:serif="http://www.serif.com/" style="fill-rule:evenodd;clip-rule:evenodd;stroke-linejoin:round;stroke-miterlimit:2;">
    <g transform="matrix(1,0,0,1,-230.85,-210.328)">
        <g>
            <path d="M230.85,307.886L230.85,359.586L245.05,359.586L245.05,336.286C245.05,333.953 245.283,331.786 245.75,329.786C246.217,327.786 247,326.036 248.1,324.536C249.2,323.036 250.65,321.853 252.45,320.986C254.25,320.12 256.45,319.686 259.05,319.686C259.917,319.686 260.817,319.736 261.75,319.836C262.683,319.936 263.483,320.053 264.15,320.186L264.15,306.986C263.017,306.653 261.983,306.486 261.05,306.486C259.25,306.486 257.517,306.753 255.85,307.286C254.183,307.82 252.617,308.57 251.15,309.536C249.683,310.503 248.383,311.67 247.25,313.036C246.117,314.403 245.217,315.886 244.55,317.486L244.35,317.486L244.35,307.886L230.85,307.886Z" style="fill:rgb(35,31,32);fill-rule:nonzero;"/>
            <path d="M269.15,323.786C269.35,320.453 270.183,317.686 271.65,315.486C273.117,313.286 274.983,311.52 277.25,310.186C279.517,308.853 282.067,307.903 284.9,307.336C287.733,306.77 290.583,306.486 293.45,306.486C296.05,306.486 298.683,306.67 301.35,307.036C304.017,307.403 306.45,308.12 308.65,309.186C310.85,310.253 312.65,311.736 314.05,313.636C315.45,315.536 316.15,318.053 316.15,321.186L316.15,348.086C316.15,350.42 316.283,352.653 316.55,354.786C316.817,356.92 317.283,358.52 317.95,359.586L303.55,359.586C303.283,358.786 303.067,357.97 302.9,357.136C302.733,356.303 302.617,355.453 302.55,354.586C300.283,356.92 297.617,358.553 294.55,359.486C291.483,360.42 288.35,360.886 285.15,360.886C282.683,360.886 280.383,360.586 278.25,359.986C276.117,359.386 274.25,358.453 272.65,357.186C271.05,355.92 269.8,354.32 268.9,352.386C268,350.453 267.55,348.153 267.55,345.486C267.55,342.553 268.067,340.136 269.1,338.236C270.133,336.336 271.467,334.82 273.1,333.686C274.733,332.553 276.6,331.703 278.7,331.136C280.8,330.57 282.917,330.12 285.05,329.786C287.183,329.453 289.283,329.186 291.35,328.986C293.417,328.786 295.25,328.486 296.85,328.086C298.45,327.686 299.717,327.103 300.65,326.336C301.583,325.57 302.017,324.453 301.95,322.986C301.95,321.453 301.7,320.236 301.2,319.336C300.7,318.436 300.033,317.736 299.2,317.236C298.367,316.736 297.4,316.403 296.3,316.236C295.2,316.07 294.017,315.986 292.75,315.986C289.95,315.986 287.75,316.586 286.15,317.786C284.55,318.986 283.617,320.986 283.35,323.786L269.15,323.786ZM301.95,334.286C301.35,334.82 300.6,335.236 299.7,335.536C298.8,335.836 297.833,336.086 296.8,336.286C295.767,336.486 294.683,336.653 293.55,336.786C292.417,336.92 291.283,337.086 290.15,337.286C289.083,337.486 288.033,337.753 287,338.086C285.967,338.42 285.067,338.87 284.3,339.436C283.533,340.003 282.917,340.72 282.45,341.586C281.983,342.453 281.75,343.553 281.75,344.886C281.75,346.153 281.983,347.22 282.45,348.086C282.917,348.953 283.55,349.636 284.35,350.136C285.15,350.636 286.083,350.986 287.15,351.186C288.217,351.386 289.317,351.486 290.45,351.486C293.25,351.486 295.417,351.02 296.95,350.086C298.483,349.153 299.617,348.036 300.35,346.736C301.083,345.436 301.533,344.12 301.7,342.786C301.867,341.453 301.95,340.386 301.95,339.586L301.95,334.286Z" style="fill:rgb(35,31,32);fill-rule:nonzero;"/>
            <path d="M363.85,333.586C363.85,335.72 363.65,337.786 363.25,339.786C362.85,341.786 362.183,343.57 361.25,345.136C360.317,346.703 359.067,347.953 357.5,348.886C355.933,349.82 353.983,350.286 351.65,350.286C349.45,350.286 347.567,349.803 346,348.836C344.433,347.87 343.133,346.603 342.1,345.036C341.067,343.47 340.317,341.686 339.85,339.686C339.383,337.686 339.15,335.686 339.15,333.686C339.15,331.553 339.367,329.503 339.8,327.536C340.233,325.57 340.933,323.82 341.9,322.286C342.867,320.753 344.15,319.52 345.75,318.586C347.35,317.653 349.317,317.186 351.65,317.186C353.983,317.186 355.917,317.653 357.45,318.586C358.983,319.52 360.233,320.736 361.2,322.236C362.167,323.736 362.85,325.47 363.25,327.436C363.65,329.403 363.85,331.453 363.85,333.586ZM364.05,352.986L364.05,359.586L377.55,359.586L377.55,288.186L363.35,288.186L363.35,314.186L363.15,314.186C361.55,311.653 359.367,309.736 356.6,308.436C353.833,307.136 350.917,306.486 347.85,306.486C344.05,306.486 340.717,307.236 337.85,308.736C334.983,310.236 332.6,312.22 330.7,314.686C328.8,317.153 327.367,320.003 326.4,323.236C325.433,326.47 324.95,329.82 324.95,333.286C324.95,336.886 325.433,340.353 326.4,343.686C327.367,347.02 328.8,349.97 330.7,352.536C332.6,355.103 335.017,357.136 337.95,358.636C340.883,360.136 344.283,360.886 348.15,360.886C351.55,360.886 354.6,360.27 357.3,359.036C360,357.803 362.183,355.786 363.85,352.986L364.05,352.986Z" style="fill:rgb(35,31,32);fill-rule:nonzero;"/>
            <rect x="388.65" y="307.886" width="14.2" height="51.7" style="fill:rgb(35,31,32);"/>
            <path d="M413.45,323.786C413.65,320.453 414.483,317.686 415.95,315.486C417.417,313.286 419.283,311.52 421.55,310.186C423.817,308.853 426.367,307.903 429.2,307.336C432.033,306.77 434.883,306.486 437.75,306.486C440.35,306.486 442.983,306.67 445.65,307.036C448.317,307.403 450.75,308.12 452.95,309.186C455.15,310.253 456.95,311.736 458.35,313.636C459.75,315.536 460.45,318.053 460.45,321.186L460.45,348.086C460.45,350.42 460.583,352.653 460.85,354.786C461.117,356.92 461.583,358.52 462.25,359.586L447.85,359.586C447.583,358.786 447.367,357.97 447.2,357.136C447.033,356.303 446.917,355.453 446.85,354.586C444.583,356.92 441.917,358.553 438.85,359.486C435.783,360.42 432.65,360.886 429.45,360.886C426.983,360.886 424.683,360.586 422.55,359.986C420.417,359.386 418.55,358.453 416.95,357.186C415.35,355.92 414.1,354.32 413.2,352.386C412.3,350.453 411.85,348.153 411.85,345.486C411.85,342.553 412.367,340.136 413.4,338.236C414.433,336.336 415.767,334.82 417.4,333.686C419.033,332.553 420.9,331.703 423,331.136C425.1,330.57 427.217,330.12 429.35,329.786C431.483,329.453 433.583,329.186 435.65,328.986C437.717,328.786 439.55,328.486 441.15,328.086C442.75,327.686 444.017,327.103 444.95,326.336C445.883,325.57 446.317,324.453 446.25,322.986C446.25,321.453 446,320.236 445.5,319.336C445,318.436 444.333,317.736 443.5,317.236C442.667,316.736 441.7,316.403 440.6,316.236C439.5,316.07 438.317,315.986 437.05,315.986C434.25,315.986 432.05,316.586 430.45,317.786C428.85,318.986 427.917,320.986 427.65,323.786L413.45,323.786ZM446.25,334.286C445.65,334.82 444.9,335.236 444,335.536C443.1,335.836 442.133,336.086 441.1,336.286C440.067,336.486 438.983,336.653 437.85,336.786C436.717,336.92 435.583,337.086 434.45,337.286C433.383,337.486 432.333,337.753 431.3,338.086C430.267,338.42 429.367,338.87 428.6,339.436C427.833,340.003 427.217,340.72 426.75,341.586C426.283,342.453 426.05,343.553 426.05,344.886C426.05,346.153 426.283,347.22 426.75,348.086C427.217,348.953 427.85,349.636 428.65,350.136C429.45,350.636 430.383,350.986 431.45,351.186C432.517,351.386 433.617,351.486 434.75,351.486C437.55,351.486 439.717,351.02 441.25,350.086C442.783,349.153 443.917,348.036 444.65,346.736C445.383,345.436 445.833,344.12 446,342.786C446.167,341.453 446.25,340.386 446.25,339.586L446.25,334.286Z" style="fill:rgb(35,31,32);fill-rule:nonzero;"/>
            <path d="M471.45,307.886L471.45,359.586L485.65,359.586L485.65,332.486C485.65,327.22 486.517,323.436 488.25,321.136C489.983,318.836 492.783,317.686 496.65,317.686C500.05,317.686 502.417,318.736 503.75,320.836C505.083,322.936 505.75,326.12 505.75,330.386L505.75,359.586L519.95,359.586L519.95,327.786C519.95,324.586 519.667,321.67 519.1,319.036C518.533,316.403 517.55,314.17 516.15,312.336C514.75,310.503 512.833,309.07 510.4,308.036C507.967,307.003 504.85,306.486 501.05,306.486C498.05,306.486 495.117,307.17 492.25,308.536C489.383,309.903 487.05,312.086 485.25,315.086L484.95,315.086L484.95,307.886L471.45,307.886Z" style="fill:rgb(35,31,32);fill-rule:nonzero;"/>
            <path d="M548.75,307.886L548.75,292.386L534.55,292.386L534.55,307.886L525.95,307.886L525.95,317.386L534.55,317.386L534.55,347.886C534.55,350.486 534.983,352.586 535.85,354.186C536.717,355.786 537.9,357.02 539.4,357.886C540.9,358.753 542.633,359.336 544.6,359.636C546.567,359.936 548.65,360.086 550.85,360.086C552.25,360.086 553.683,360.053 555.15,359.986C556.617,359.92 557.95,359.786 559.15,359.586L559.15,348.586C558.483,348.72 557.783,348.82 557.05,348.886C556.317,348.953 555.55,348.986 554.75,348.986C552.35,348.986 550.75,348.586 549.95,347.786C549.15,346.986 548.75,345.386 548.75,342.986L548.75,317.386L559.15,317.386L559.15,307.886L548.75,307.886Z" style="fill:rgb(35,31,32);fill-rule:nonzero;"/>
            <path d="M391.708,281.961L381.292,281.961L381.292,276.753C381.292,268.773 387.77,262.295 395.75,262.295C403.73,262.295 410.208,268.773 410.208,276.753L410.208,281.961L399.792,281.961L399.792,276.753C399.792,274.522 397.981,272.711 395.75,272.711C393.519,272.711 391.708,274.522 391.708,276.753L391.708,281.961Z" style="fill:rgb(64,187,143);"/>
            <path d="M386.877,249.44L381.924,251.05L378.703,241.143L383.656,239.533C387.466,238.295 391.53,237.624 395.75,237.624C399.97,237.624 404.034,238.295 407.844,239.533L412.797,241.143L409.576,251.05L404.623,249.44C401.828,248.531 398.846,248.041 395.75,248.041C392.654,248.041 389.672,248.531 386.877,249.44ZM418.979,259.884L415.914,255.673L424.335,249.542L427.4,253.753C432.103,260.211 434.879,268.16 434.879,276.753L434.879,281.961L424.462,281.961L424.462,276.753C424.462,270.451 422.428,264.62 418.979,259.884ZM367.038,276.753L367.038,281.961L356.621,281.961L356.621,276.753C356.621,268.16 359.397,260.211 364.1,253.753L367.165,249.542L375.586,255.673L372.521,259.884C369.072,264.62 367.038,270.451 367.038,276.753Z" style="fill:rgb(64,187,143);"/>
            <path d="M386.018,221.588L380.888,222.488L379.089,212.228L384.219,211.328C387.964,210.671 391.817,210.328 395.75,210.328C399.683,210.328 403.536,210.671 407.281,211.328L412.411,212.228L410.612,222.488L405.482,221.588C402.321,221.033 399.069,220.745 395.75,220.745C392.431,220.745 389.179,221.033 386.018,221.588ZM423.747,228.243L419.24,225.633L424.459,216.619L428.966,219.228C435.685,223.118 441.66,228.151 446.626,234.061L449.976,238.049L442,244.749L438.65,240.761C434.46,235.774 429.417,231.526 423.747,228.243ZM448.393,257.597L446.609,252.703L456.396,249.136L458.18,254.03C460.764,261.12 462.175,268.773 462.175,276.753L462.175,281.961L451.759,281.961L451.759,276.753C451.759,270.026 450.571,263.574 448.393,257.597ZM339.741,276.753L339.741,281.961L329.325,281.961L329.325,276.753C329.325,268.773 330.736,261.12 333.32,254.03L335.104,249.136L344.891,252.703L343.107,257.597C340.929,263.574 339.741,270.026 339.741,276.753ZM352.85,240.761L349.5,244.749L341.524,238.049L344.875,234.061C349.84,228.151 355.815,223.118 362.534,219.228L367.041,216.619L372.26,225.633L367.753,228.243C362.083,231.526 357.04,235.774 352.85,240.761Z" style="fill:rgb(64,187,143);"/>
            <rect x="230.99" y="385.083" width="2.531" height="19.021" style="fill:rgb(35,31,32);"/>
            <path d="M239.062,397.231C239.062,396.396 239.173,395.655 239.395,395.006C239.617,394.358 239.923,393.812 240.314,393.368C240.705,392.924 241.162,392.587 241.686,392.356C242.21,392.125 242.765,392.009 243.351,392.009C243.937,392.009 244.492,392.125 245.016,392.356C245.54,392.587 245.997,392.924 246.388,393.368C246.779,393.812 247.085,394.358 247.307,395.006C247.529,395.655 247.64,396.396 247.64,397.231C247.64,398.066 247.529,398.807 247.307,399.455C247.085,400.104 246.779,400.645 246.388,401.081C245.997,401.516 245.54,401.849 245.016,402.08C244.492,402.31 243.937,402.426 243.351,402.426C242.765,402.426 242.21,402.31 241.686,402.08C241.162,401.849 240.705,401.516 240.314,401.081C239.923,400.645 239.617,400.104 239.395,399.455C239.173,398.807 239.062,398.066 239.062,397.231ZM236.664,397.231C236.664,398.243 236.806,399.185 237.09,400.055C237.375,400.925 237.801,401.684 238.369,402.333C238.937,402.981 239.639,403.487 240.474,403.851C241.308,404.215 242.268,404.397 243.351,404.397C244.452,404.397 245.416,404.215 246.241,403.851C247.067,403.487 247.764,402.981 248.333,402.333C248.901,401.684 249.327,400.925 249.611,400.055C249.896,399.185 250.038,398.243 250.038,397.231C250.038,396.219 249.896,395.273 249.611,394.394C249.327,393.515 248.901,392.751 248.333,392.103C247.764,391.454 247.067,390.944 246.241,390.571C245.416,390.198 244.452,390.011 243.351,390.011C242.268,390.011 241.308,390.198 240.474,390.571C239.639,390.944 238.937,391.454 238.369,392.103C237.801,392.751 237.375,393.515 237.09,394.394C236.806,395.273 236.664,396.219 236.664,397.231Z" style="fill:rgb(35,31,32);fill-rule:nonzero;"/>
            <path d="M257.391,387.214L257.391,404.104L259.921,404.104L259.921,387.214L266.262,387.214L266.262,385.083L251.05,385.083L251.05,387.214L257.391,387.214Z" style="fill:rgb(35,31,32);fill-rule:nonzero;"/>
            <path d="M278.304,401.973L278.304,387.214L282.566,387.214C283.738,387.214 284.724,387.378 285.523,387.707C286.322,388.035 286.975,388.515 287.481,389.145C287.987,389.776 288.352,390.54 288.574,391.437C288.796,392.333 288.907,393.35 288.907,394.487C288.907,395.659 288.787,396.658 288.547,397.484C288.307,398.31 288.001,398.998 287.628,399.549C287.255,400.099 286.833,400.534 286.362,400.854C285.892,401.174 285.417,401.418 284.937,401.587C284.458,401.755 284.005,401.862 283.578,401.906C283.152,401.951 282.797,401.973 282.513,401.973L278.304,401.973ZM275.773,385.083L275.773,404.104L282.3,404.104C283.88,404.104 285.248,403.882 286.402,403.438C287.557,402.994 288.507,402.35 289.253,401.507C289.999,400.663 290.549,399.624 290.905,398.39C291.26,397.155 291.437,395.739 291.437,394.141C291.437,391.086 290.647,388.812 289.066,387.321C287.486,385.829 285.23,385.083 282.3,385.083L275.773,385.083Z" style="fill:rgb(35,31,32);fill-rule:nonzero;"/>
            <path d="M295.806,397.231C295.806,396.396 295.918,395.655 296.14,395.006C296.362,394.358 296.668,393.812 297.059,393.368C297.449,392.924 297.907,392.587 298.431,392.356C298.955,392.125 299.51,392.009 300.096,392.009C300.682,392.009 301.237,392.125 301.761,392.356C302.285,392.587 302.742,392.924 303.133,393.368C303.523,393.812 303.83,394.358 304.052,395.006C304.274,395.655 304.385,396.396 304.385,397.231C304.385,398.066 304.274,398.807 304.052,399.455C303.83,400.104 303.523,400.645 303.133,401.081C302.742,401.516 302.285,401.849 301.761,402.08C301.237,402.31 300.682,402.426 300.096,402.426C299.51,402.426 298.955,402.31 298.431,402.08C297.907,401.849 297.449,401.516 297.059,401.081C296.668,400.645 296.362,400.104 296.14,399.455C295.918,398.807 295.806,398.066 295.806,397.231ZM293.409,397.231C293.409,398.243 293.551,399.185 293.835,400.055C294.119,400.925 294.546,401.684 295.114,402.333C295.682,402.981 296.384,403.487 297.218,403.851C298.053,404.215 299.012,404.397 300.096,404.397C301.197,404.397 302.16,404.215 302.986,403.851C303.812,403.487 304.509,402.981 305.077,402.333C305.646,401.684 306.072,400.925 306.356,400.055C306.64,399.185 306.782,398.243 306.782,397.231C306.782,396.219 306.64,395.273 306.356,394.394C306.072,393.515 305.646,392.751 305.077,392.103C304.509,391.454 303.812,390.944 302.986,390.571C302.16,390.198 301.197,390.011 300.096,390.011C299.012,390.011 298.053,390.198 297.218,390.571C296.384,390.944 295.682,391.454 295.114,392.103C294.546,392.751 294.119,393.515 293.835,394.394C293.551,395.273 293.409,396.219 293.409,397.231Z" style="fill:rgb(35,31,32);fill-rule:nonzero;"/>
            <path d="M309.447,390.331L309.447,404.104L311.711,404.104L311.711,395.526C311.711,395.26 311.778,394.927 311.911,394.527C312.044,394.127 312.257,393.741 312.55,393.368C312.843,392.995 313.225,392.675 313.696,392.409C314.166,392.143 314.73,392.009 315.387,392.009C315.902,392.009 316.324,392.085 316.653,392.236C316.981,392.387 317.243,392.6 317.439,392.875C317.634,393.15 317.772,393.475 317.852,393.848C317.932,394.221 317.972,394.629 317.972,395.073L317.972,404.104L320.236,404.104L320.236,395.526C320.236,394.46 320.556,393.608 321.195,392.968C321.834,392.329 322.714,392.009 323.833,392.009C324.383,392.009 324.832,392.089 325.178,392.249C325.524,392.409 325.795,392.627 325.99,392.902C326.186,393.177 326.319,393.501 326.39,393.874C326.461,394.247 326.497,394.647 326.497,395.073L326.497,404.104L328.761,404.104L328.761,394.007C328.761,393.297 328.65,392.689 328.428,392.183C328.206,391.676 327.895,391.263 327.496,390.944C327.096,390.624 326.616,390.389 326.057,390.238C325.498,390.087 324.872,390.011 324.179,390.011C323.273,390.011 322.443,390.216 321.688,390.624C320.933,391.033 320.325,391.61 319.863,392.356C319.579,391.503 319.09,390.899 318.398,390.544C317.705,390.189 316.933,390.011 316.08,390.011C314.144,390.011 312.661,390.793 311.631,392.356L311.578,392.356L311.578,390.331L309.447,390.331Z" style="fill:rgb(35,31,32);fill-rule:nonzero;"/>
            <path d="M344.373,404.051C343.982,404.282 343.44,404.397 342.747,404.397C342.161,404.397 341.695,404.233 341.349,403.904C341.002,403.576 340.829,403.039 340.829,402.293C340.208,403.039 339.484,403.576 338.658,403.904C337.832,404.233 336.94,404.397 335.981,404.397C335.359,404.397 334.769,404.326 334.209,404.184C333.65,404.042 333.166,403.82 332.757,403.518C332.349,403.216 332.025,402.821 331.785,402.333C331.545,401.844 331.425,401.254 331.425,400.561C331.425,399.78 331.558,399.14 331.825,398.643C332.091,398.146 332.442,397.742 332.877,397.431C333.312,397.12 333.809,396.885 334.369,396.725C334.928,396.565 335.501,396.432 336.087,396.325C336.709,396.201 337.299,396.108 337.859,396.045C338.418,395.983 338.911,395.894 339.337,395.779C339.764,395.664 340.101,395.495 340.35,395.273C340.598,395.051 340.723,394.727 340.723,394.3C340.723,393.803 340.63,393.404 340.443,393.102C340.257,392.8 340.017,392.569 339.724,392.409C339.431,392.249 339.102,392.143 338.738,392.089C338.374,392.036 338.014,392.009 337.659,392.009C336.7,392.009 335.901,392.191 335.261,392.555C334.622,392.92 334.276,393.608 334.222,394.62L331.958,394.62C331.993,393.768 332.171,393.048 332.491,392.462C332.81,391.876 333.237,391.401 333.77,391.037C334.302,390.673 334.911,390.411 335.594,390.251C336.278,390.091 337.011,390.011 337.792,390.011C338.414,390.011 339.031,390.056 339.644,390.144C340.257,390.233 340.812,390.415 341.309,390.691C341.806,390.966 342.206,391.352 342.508,391.85C342.81,392.347 342.961,392.995 342.961,393.794L342.961,400.881C342.961,401.414 342.992,401.804 343.054,402.053C343.116,402.302 343.325,402.426 343.68,402.426C343.875,402.426 344.106,402.381 344.373,402.293L344.373,404.051ZM340.696,396.991C340.412,397.204 340.039,397.36 339.577,397.457C339.115,397.555 338.631,397.635 338.125,397.697C337.619,397.759 337.108,397.83 336.593,397.91C336.078,397.99 335.617,398.119 335.208,398.297C334.8,398.474 334.467,398.727 334.209,399.056C333.952,399.384 333.823,399.833 333.823,400.401C333.823,400.774 333.898,401.089 334.049,401.347C334.2,401.604 334.396,401.813 334.635,401.973C334.875,402.133 335.155,402.248 335.475,402.319C335.794,402.39 336.132,402.426 336.487,402.426C337.233,402.426 337.872,402.324 338.405,402.119C338.938,401.915 339.373,401.658 339.71,401.347C340.048,401.036 340.296,400.699 340.456,400.335C340.616,399.97 340.696,399.629 340.696,399.309L340.696,396.991Z" style="fill:rgb(35,31,32);fill-rule:nonzero;"/>
            <path d="M348.875,387.853L348.875,385.083L346.61,385.083L346.61,387.853L348.875,387.853ZM346.61,390.331L346.61,404.104L348.875,404.104L348.875,390.331L346.61,390.331Z" style="fill:rgb(35,31,32);fill-rule:nonzero;"/>
            <path d="M352.391,390.331L352.391,404.104L354.656,404.104L354.656,396.325C354.656,395.704 354.74,395.131 354.909,394.607C355.078,394.083 355.331,393.626 355.668,393.235C356.006,392.844 356.427,392.542 356.934,392.329C357.44,392.116 358.039,392.009 358.732,392.009C359.602,392.009 360.286,392.258 360.783,392.755C361.281,393.253 361.529,393.927 361.529,394.78L361.529,404.104L363.794,404.104L363.794,395.046C363.794,394.3 363.718,393.621 363.567,393.008C363.416,392.396 363.154,391.867 362.781,391.423C362.408,390.979 361.92,390.633 361.316,390.384C360.712,390.136 359.957,390.011 359.052,390.011C357.009,390.011 355.517,390.846 354.576,392.516L354.523,392.516L354.523,390.331L352.391,390.331Z" style="fill:rgb(35,31,32);fill-rule:nonzero;"/>
            <path d="M385.985,390.651L388.383,390.651C388.347,389.603 388.148,388.701 387.784,387.947C387.419,387.192 386.922,386.566 386.292,386.068C385.661,385.571 384.929,385.207 384.094,384.976C383.259,384.745 382.353,384.63 381.376,384.63C380.506,384.63 379.658,384.741 378.832,384.963C378.006,385.185 377.269,385.522 376.621,385.975C375.973,386.428 375.453,387.005 375.063,387.707C374.672,388.408 374.477,389.239 374.477,390.198C374.477,391.068 374.65,391.792 374.996,392.369C375.342,392.946 375.804,393.417 376.381,393.781C376.959,394.145 377.611,394.438 378.339,394.66C379.068,394.882 379.809,395.077 380.564,395.246C381.319,395.415 382.06,395.579 382.788,395.739C383.517,395.899 384.169,396.108 384.747,396.365C385.324,396.623 385.786,396.956 386.132,397.364C386.478,397.773 386.651,398.305 386.651,398.963C386.651,399.655 386.509,400.224 386.225,400.668C385.941,401.112 385.568,401.462 385.106,401.72C384.644,401.977 384.125,402.159 383.548,402.266C382.97,402.373 382.398,402.426 381.829,402.426C381.119,402.426 380.426,402.337 379.751,402.159C379.077,401.982 378.486,401.707 377.98,401.334C377.474,400.961 377.065,400.486 376.754,399.908C376.444,399.331 376.288,398.643 376.288,397.844L373.89,397.844C373.89,398.998 374.099,399.997 374.517,400.841C374.934,401.684 375.502,402.377 376.222,402.919C376.941,403.46 377.776,403.864 378.726,404.131C379.676,404.397 380.684,404.53 381.749,404.53C382.62,404.53 383.494,404.428 384.374,404.224C385.253,404.02 386.047,403.691 386.758,403.238C387.468,402.786 388.05,402.199 388.503,401.48C388.956,400.761 389.182,399.895 389.182,398.883C389.182,397.941 389.009,397.16 388.663,396.538C388.316,395.917 387.855,395.402 387.277,394.993C386.7,394.585 386.047,394.26 385.319,394.021C384.591,393.781 383.85,393.572 383.095,393.395C382.34,393.217 381.598,393.053 380.87,392.902C380.142,392.751 379.489,392.56 378.912,392.329C378.335,392.098 377.873,391.801 377.527,391.437C377.181,391.072 377.007,390.597 377.007,390.011C377.007,389.39 377.127,388.87 377.367,388.453C377.607,388.035 377.927,387.702 378.326,387.454C378.726,387.205 379.183,387.028 379.698,386.921C380.213,386.814 380.737,386.761 381.27,386.761C382.584,386.761 383.663,387.067 384.507,387.68C385.35,388.293 385.843,389.283 385.985,390.651Z" style="fill:rgb(35,31,32);fill-rule:nonzero;"/>
            <path d="M391.953,390.331L391.953,409.352L394.217,409.352L394.217,402.266L394.271,402.266C394.519,402.675 394.826,403.016 395.19,403.292C395.554,403.567 395.94,403.785 396.349,403.944C396.757,404.104 397.17,404.22 397.587,404.291C398.005,404.362 398.382,404.397 398.72,404.397C399.767,404.397 400.687,404.211 401.477,403.838C402.267,403.465 402.924,402.954 403.448,402.306C403.972,401.658 404.363,400.898 404.621,400.028C404.878,399.158 405.007,398.234 405.007,397.258C405.007,396.281 404.874,395.357 404.607,394.487C404.341,393.617 403.946,392.849 403.422,392.183C402.898,391.516 402.241,390.988 401.45,390.597C400.66,390.207 399.732,390.011 398.666,390.011C397.707,390.011 396.828,390.184 396.029,390.531C395.23,390.877 394.644,391.432 394.271,392.196L394.217,392.196L394.217,390.331L391.953,390.331ZM402.609,397.098C402.609,397.773 402.538,398.43 402.396,399.069C402.254,399.709 402.023,400.277 401.703,400.774C401.384,401.271 400.962,401.671 400.438,401.973C399.914,402.275 399.261,402.426 398.48,402.426C397.698,402.426 397.032,402.279 396.482,401.986C395.931,401.693 395.483,401.307 395.136,400.827C394.79,400.348 394.537,399.793 394.377,399.162C394.217,398.532 394.137,397.879 394.137,397.204C394.137,396.565 394.213,395.934 394.364,395.313C394.515,394.691 394.759,394.136 395.096,393.648C395.434,393.159 395.869,392.764 396.402,392.462C396.935,392.16 397.583,392.009 398.347,392.009C399.075,392.009 399.71,392.151 400.251,392.436C400.793,392.72 401.237,393.102 401.583,393.581C401.93,394.061 402.187,394.607 402.356,395.22C402.525,395.832 402.609,396.458 402.609,397.098Z" style="fill:rgb(35,31,32);fill-rule:nonzero;"/>
            <path d="M417.235,395.899L409.323,395.899C409.358,395.366 409.474,394.864 409.669,394.394C409.864,393.923 410.131,393.51 410.468,393.155C410.806,392.8 411.21,392.52 411.68,392.316C412.151,392.111 412.679,392.009 413.265,392.009C413.834,392.009 414.353,392.111 414.824,392.316C415.295,392.52 415.703,392.795 416.049,393.142C416.396,393.488 416.671,393.901 416.875,394.38C417.079,394.86 417.199,395.366 417.235,395.899ZM419.419,399.735L417.182,399.735C416.986,400.641 416.582,401.316 415.969,401.76C415.357,402.204 414.571,402.426 413.612,402.426C412.866,402.426 412.218,402.302 411.667,402.053C411.116,401.804 410.664,401.471 410.308,401.054C409.953,400.636 409.696,400.157 409.536,399.615C409.376,399.074 409.305,398.501 409.323,397.897L419.633,397.897C419.668,397.062 419.593,396.183 419.406,395.26C419.22,394.336 418.882,393.483 418.394,392.702C417.905,391.921 417.257,391.277 416.449,390.771C415.641,390.264 414.624,390.011 413.399,390.011C412.457,390.011 411.592,390.189 410.801,390.544C410.011,390.899 409.327,391.397 408.75,392.036C408.173,392.675 407.724,393.43 407.404,394.3C407.085,395.171 406.925,396.13 406.925,397.178C406.96,398.226 407.116,399.193 407.391,400.081C407.666,400.97 408.079,401.733 408.63,402.373C409.181,403.012 409.86,403.509 410.668,403.864C411.476,404.22 412.431,404.397 413.532,404.397C415.095,404.397 416.391,404.007 417.421,403.225C418.451,402.444 419.118,401.28 419.419,399.735Z" style="fill:rgb(35,31,32);fill-rule:nonzero;"/>
            <path d="M431.328,394.753L433.672,394.753C433.583,393.936 433.37,393.23 433.033,392.635C432.695,392.04 432.265,391.548 431.741,391.157C431.217,390.766 430.613,390.478 429.929,390.291C429.245,390.105 428.513,390.011 427.731,390.011C426.648,390.011 425.698,390.202 424.881,390.584C424.064,390.966 423.384,391.49 422.843,392.156C422.301,392.822 421.897,393.603 421.631,394.5C421.364,395.397 421.231,396.361 421.231,397.391C421.231,398.421 421.369,399.367 421.644,400.228C421.919,401.089 422.328,401.831 422.869,402.453C423.411,403.074 424.086,403.554 424.894,403.891C425.702,404.229 426.63,404.397 427.678,404.397C429.436,404.397 430.826,403.936 431.847,403.012C432.869,402.088 433.503,400.774 433.752,399.069L431.434,399.069C431.292,400.135 430.906,400.961 430.276,401.547C429.645,402.133 428.77,402.426 427.651,402.426C426.941,402.426 426.328,402.284 425.813,402C425.298,401.715 424.881,401.338 424.561,400.867C424.241,400.397 424.006,399.859 423.855,399.256C423.704,398.652 423.629,398.03 423.629,397.391C423.629,396.698 423.7,396.028 423.842,395.379C423.984,394.731 424.219,394.158 424.548,393.661C424.876,393.164 425.316,392.764 425.866,392.462C426.417,392.16 427.101,392.009 427.918,392.009C428.877,392.009 429.641,392.249 430.209,392.729C430.777,393.208 431.15,393.883 431.328,394.753Z" style="fill:rgb(35,31,32);fill-rule:nonzero;"/>
            <path d="M438.681,387.853L438.681,385.083L436.416,385.083L436.416,387.853L438.681,387.853ZM436.416,390.331L436.416,404.104L438.681,404.104L438.681,390.331L436.416,390.331Z" style="fill:rgb(35,31,32);fill-rule:nonzero;"/>
            <path d="M450.216,404.104L452.481,404.104L452.481,390.331L450.216,390.331L450.216,404.104ZM450.216,387.853L452.481,387.853L452.481,385.083L450.216,385.083L450.216,387.853ZM443.13,392.329L443.13,404.104L445.394,404.104L445.394,392.329L448.058,392.329L448.058,390.331L445.394,390.331L445.394,388.413C445.394,387.809 445.545,387.401 445.847,387.187C446.149,386.974 446.575,386.868 447.126,386.868C447.321,386.868 447.534,386.881 447.765,386.908C447.996,386.934 448.209,386.983 448.405,387.054L448.405,385.083C448.191,385.012 447.947,384.958 447.672,384.923C447.397,384.887 447.152,384.87 446.939,384.87C445.696,384.87 444.75,385.158 444.102,385.735C443.454,386.313 443.13,387.161 443.13,388.28L443.13,390.331L440.812,390.331L440.812,392.329L443.13,392.329Z" style="fill:rgb(35,31,32);fill-rule:nonzero;"/>
            <path d="M465.348,394.753L467.692,394.753C467.604,393.936 467.39,393.23 467.053,392.635C466.716,392.04 466.285,391.548 465.761,391.157C465.237,390.766 464.633,390.478 463.949,390.291C463.266,390.105 462.533,390.011 461.752,390.011C460.668,390.011 459.718,390.202 458.901,390.584C458.084,390.966 457.405,391.49 456.863,392.156C456.321,392.822 455.917,393.603 455.651,394.5C455.384,395.397 455.251,396.361 455.251,397.391C455.251,398.421 455.389,399.367 455.664,400.228C455.939,401.089 456.348,401.831 456.89,402.453C457.431,403.074 458.106,403.554 458.914,403.891C459.722,404.229 460.65,404.397 461.698,404.397C463.457,404.397 464.846,403.936 465.868,403.012C466.889,402.088 467.524,400.774 467.772,399.069L465.455,399.069C465.313,400.135 464.926,400.961 464.296,401.547C463.665,402.133 462.791,402.426 461.672,402.426C460.961,402.426 460.348,402.284 459.833,402C459.318,401.715 458.901,401.338 458.581,400.867C458.262,400.397 458.026,399.859 457.875,399.256C457.724,398.652 457.649,398.03 457.649,397.391C457.649,396.698 457.72,396.028 457.862,395.379C458.004,394.731 458.239,394.158 458.568,393.661C458.897,393.164 459.336,392.764 459.887,392.462C460.437,392.16 461.121,392.009 461.938,392.009C462.897,392.009 463.661,392.249 464.229,392.729C464.797,393.208 465.17,393.883 465.348,394.753Z" style="fill:rgb(35,31,32);fill-rule:nonzero;"/>
            <path d="M482.398,387.214L482.398,404.104L484.929,404.104L484.929,387.214L491.269,387.214L491.269,385.083L476.058,385.083L476.058,387.214L482.398,387.214Z" style="fill:rgb(35,31,32);fill-rule:nonzero;"/>
            <path d="M491.696,397.231C491.696,396.396 491.807,395.655 492.029,395.006C492.251,394.358 492.557,393.812 492.948,393.368C493.339,392.924 493.796,392.587 494.32,392.356C494.844,392.125 495.399,392.009 495.985,392.009C496.571,392.009 497.126,392.125 497.65,392.356C498.174,392.587 498.631,392.924 499.022,393.368C499.413,393.812 499.719,394.358 499.941,395.006C500.163,395.655 500.274,396.396 500.274,397.231C500.274,398.066 500.163,398.807 499.941,399.455C499.719,400.104 499.413,400.645 499.022,401.081C498.631,401.516 498.174,401.849 497.65,402.08C497.126,402.31 496.571,402.426 495.985,402.426C495.399,402.426 494.844,402.31 494.32,402.08C493.796,401.849 493.339,401.516 492.948,401.081C492.557,400.645 492.251,400.104 492.029,399.455C491.807,398.807 491.696,398.066 491.696,397.231ZM489.298,397.231C489.298,398.243 489.44,399.185 489.724,400.055C490.008,400.925 490.435,401.684 491.003,402.333C491.571,402.981 492.273,403.487 493.108,403.851C493.942,404.215 494.901,404.397 495.985,404.397C497.086,404.397 498.05,404.215 498.875,403.851C499.701,403.487 500.398,402.981 500.967,402.333C501.535,401.684 501.961,400.925 502.245,400.055C502.53,399.185 502.672,398.243 502.672,397.231C502.672,396.219 502.53,395.273 502.245,394.394C501.961,393.515 501.535,392.751 500.967,392.103C500.398,391.454 499.701,390.944 498.875,390.571C498.05,390.198 497.086,390.011 495.985,390.011C494.901,390.011 493.942,390.198 493.108,390.571C492.273,390.944 491.571,391.454 491.003,392.103C490.435,392.751 490.008,393.515 489.724,394.394C489.44,395.273 489.298,396.219 489.298,397.231Z" style="fill:rgb(35,31,32);fill-rule:nonzero;"/>
            <path d="M506.987,397.231C506.987,396.396 507.098,395.655 507.32,395.006C507.542,394.358 507.849,393.812 508.24,393.368C508.63,392.924 509.088,392.587 509.612,392.356C510.136,392.125 510.691,392.009 511.277,392.009C511.863,392.009 512.418,392.125 512.942,392.356C513.466,392.587 513.923,392.924 514.314,393.368C514.704,393.812 515.011,394.358 515.233,395.006C515.455,395.655 515.566,396.396 515.566,397.231C515.566,398.066 515.455,398.807 515.233,399.455C515.011,400.104 514.704,400.645 514.314,401.081C513.923,401.516 513.466,401.849 512.942,402.08C512.418,402.31 511.863,402.426 511.277,402.426C510.691,402.426 510.136,402.31 509.612,402.08C509.088,401.849 508.63,401.516 508.24,401.081C507.849,400.645 507.542,400.104 507.32,399.455C507.098,398.807 506.987,398.066 506.987,397.231ZM504.59,397.231C504.59,398.243 504.732,399.185 505.016,400.055C505.3,400.925 505.726,401.684 506.295,402.333C506.863,402.981 507.565,403.487 508.399,403.851C509.234,404.215 510.193,404.397 511.277,404.397C512.378,404.397 513.341,404.215 514.167,403.851C514.993,403.487 515.69,402.981 516.258,402.333C516.827,401.684 517.253,400.925 517.537,400.055C517.821,399.185 517.963,398.243 517.963,397.231C517.963,396.219 517.821,395.273 517.537,394.394C517.253,393.515 516.827,392.751 516.258,392.103C515.69,391.454 514.993,390.944 514.167,390.571C513.341,390.198 512.378,390.011 511.277,390.011C510.193,390.011 509.234,390.198 508.399,390.571C507.565,390.944 506.863,391.454 506.295,392.103C505.726,392.751 505.3,393.515 505.016,394.394C504.732,395.273 504.59,396.219 504.59,397.231Z" style="fill:rgb(35,31,32);fill-rule:nonzero;"/>
            <rect x="520.761" y="385.083" width="2.264" height="19.021" style="fill:rgb(35,31,32);"/>
            <path d="M528.939,387.853L528.939,385.083L526.675,385.083L526.675,387.853L528.939,387.853ZM526.675,390.331L526.675,404.104L528.939,404.104L528.939,390.331L526.675,390.331Z" style="fill:rgb(35,31,32);fill-rule:nonzero;"/>
            <path d="M532.456,390.331L532.456,404.104L534.72,404.104L534.72,396.325C534.72,395.704 534.805,395.131 534.974,394.607C535.142,394.083 535.395,393.626 535.733,393.235C536.07,392.844 536.492,392.542 536.998,392.329C537.504,392.116 538.104,392.009 538.796,392.009C539.667,392.009 540.351,392.258 540.848,392.755C541.345,393.253 541.594,393.927 541.594,394.78L541.594,404.104L543.858,404.104L543.858,395.046C543.858,394.3 543.783,393.621 543.632,393.008C543.481,392.396 543.219,391.867 542.846,391.423C542.473,390.979 541.984,390.633 541.381,390.384C540.777,390.136 540.022,390.011 539.116,390.011C537.074,390.011 535.582,390.846 534.641,392.516L534.587,392.516L534.587,390.331L532.456,390.331Z" style="fill:rgb(35,31,32);fill-rule:nonzero;"/>
            <path d="M559.15,402.932L559.15,390.331L557.019,390.331L557.019,392.302L556.992,392.302C556.584,391.539 556.015,390.966 555.287,390.584C554.559,390.202 553.76,390.011 552.889,390.011C551.699,390.011 550.696,390.238 549.879,390.691C549.062,391.144 548.405,391.721 547.908,392.422C547.41,393.124 547.055,393.905 546.842,394.767C546.629,395.628 546.522,396.467 546.522,397.284C546.522,398.226 546.651,399.118 546.909,399.962C547.166,400.805 547.552,401.542 548.067,402.173C548.583,402.803 549.222,403.305 549.986,403.678C550.749,404.051 551.646,404.237 552.676,404.237C553.564,404.237 554.404,404.038 555.194,403.638C555.984,403.238 556.575,402.612 556.965,401.76L557.019,401.76L557.019,402.666C557.019,403.429 556.943,404.131 556.792,404.77C556.641,405.41 556.397,405.956 556.06,406.409C555.722,406.862 555.296,407.217 554.781,407.474C554.266,407.732 553.635,407.861 552.889,407.861C552.516,407.861 552.126,407.821 551.717,407.741C551.309,407.661 550.931,407.532 550.585,407.354C550.239,407.177 549.946,406.946 549.706,406.662C549.466,406.378 549.337,406.031 549.32,405.623L547.055,405.623C547.091,406.369 547.286,406.999 547.641,407.514C547.996,408.029 548.445,408.447 548.987,408.766C549.528,409.086 550.132,409.317 550.798,409.459C551.464,409.601 552.117,409.672 552.756,409.672C554.959,409.672 556.575,409.113 557.605,407.994C558.635,406.875 559.15,405.188 559.15,402.932ZM552.81,402.266C552.064,402.266 551.442,402.111 550.945,401.8C550.447,401.489 550.048,401.081 549.746,400.574C549.444,400.068 549.231,399.504 549.106,398.883C548.982,398.261 548.92,397.639 548.92,397.018C548.92,396.361 548.995,395.73 549.146,395.126C549.297,394.522 549.537,393.99 549.866,393.528C550.194,393.066 550.616,392.698 551.131,392.422C551.646,392.147 552.268,392.009 552.996,392.009C553.706,392.009 554.31,392.151 554.808,392.436C555.305,392.72 555.709,393.097 556.02,393.568C556.331,394.038 556.557,394.567 556.699,395.153C556.841,395.739 556.912,396.334 556.912,396.938C556.912,397.577 556.837,398.217 556.686,398.856C556.535,399.495 556.299,400.068 555.98,400.574C555.66,401.081 555.238,401.489 554.714,401.8C554.19,402.111 553.555,402.266 552.81,402.266Z" style="fill:rgb(35,31,32);fill-rule:nonzero;"/>
        </g>
    </g>
</svg>
