<?xml version="1.0" encoding="UTF-8" standalone="no"?>
<svg
   width="100%"
   height="100%"
   viewBox="0 0 329 200"
   version="1.1"
   xml:space="preserve"
   style="fill-rule:evenodd;clip-rule:evenodd;stroke-linejoin:round;stroke-miterlimit:2;"
   id="svg31"
   sodipodi:docname="radiant_logo.svg"
   inkscape:version="1.4 (86a8ad7, 2024-10-11)"
   xmlns:inkscape="http://www.inkscape.org/namespaces/inkscape"
   xmlns:sodipodi="http://sodipodi.sourceforge.net/DTD/sodipodi-0.dtd"
   xmlns="http://www.w3.org/2000/svg"
   xmlns:svg="http://www.w3.org/2000/svg"><defs
   id="defs31" /><sodipodi:namedview
   id="namedview31"
   pagecolor="#ffffff"
   bordercolor="#000000"
   borderopacity="0.25"
   inkscape:showpageshadow="2"
   inkscape:pageopacity="0.0"
   inkscape:pagecheckerboard="0"
   inkscape:deskcolor="#d1d1d1"
   inkscape:zoom="1.4584077"
   inkscape:cx="90.166828"
   inkscape:cy="20.227539"
   inkscape:window-width="1920"
   inkscape:window-height="1027"
   inkscape:window-x="842"
   inkscape:window-y="2152"
   inkscape:window-maximized="1"
   inkscape:current-layer="g30" />
    <g
   transform="matrix(1,0,0,1,-230.85,-210.328)"
   id="g31">
        <g
   id="g30">
            <path
   d="M230.85,307.886L230.85,359.586L245.05,359.586L245.05,336.286C245.05,333.953 245.283,331.786 245.75,329.786C246.217,327.786 247,326.036 248.1,324.536C249.2,323.036 250.65,321.853 252.45,320.986C254.25,320.12 256.45,319.686 259.05,319.686C259.917,319.686 260.817,319.736 261.75,319.836C262.683,319.936 263.483,320.053 264.15,320.186L264.15,306.986C263.017,306.653 261.983,306.486 261.05,306.486C259.25,306.486 257.517,306.753 255.85,307.286C254.183,307.82 252.617,308.57 251.15,309.536C249.683,310.503 248.383,311.67 247.25,313.036C246.117,314.403 245.217,315.886 244.55,317.486L244.35,317.486L244.35,307.886L230.85,307.886Z"
   style="fill:rgb(35,31,32);fill-rule:nonzero;"
   id="path1" />
            <path
   d="M269.15,323.786C269.35,320.453 270.183,317.686 271.65,315.486C273.117,313.286 274.983,311.52 277.25,310.186C279.517,308.853 282.067,307.903 284.9,307.336C287.733,306.77 290.583,306.486 293.45,306.486C296.05,306.486 298.683,306.67 301.35,307.036C304.017,307.403 306.45,308.12 308.65,309.186C310.85,310.253 312.65,311.736 314.05,313.636C315.45,315.536 316.15,318.053 316.15,321.186L316.15,348.086C316.15,350.42 316.283,352.653 316.55,354.786C316.817,356.92 317.283,358.52 317.95,359.586L303.55,359.586C303.283,358.786 303.067,357.97 302.9,357.136C302.733,356.303 302.617,355.453 302.55,354.586C300.283,356.92 297.617,358.553 294.55,359.486C291.483,360.42 288.35,360.886 285.15,360.886C282.683,360.886 280.383,360.586 278.25,359.986C276.117,359.386 274.25,358.453 272.65,357.186C271.05,355.92 269.8,354.32 268.9,352.386C268,350.453 267.55,348.153 267.55,345.486C267.55,342.553 268.067,340.136 269.1,338.236C270.133,336.336 271.467,334.82 273.1,333.686C274.733,332.553 276.6,331.703 278.7,331.136C280.8,330.57 282.917,330.12 285.05,329.786C287.183,329.453 289.283,329.186 291.35,328.986C293.417,328.786 295.25,328.486 296.85,328.086C298.45,327.686 299.717,327.103 300.65,326.336C301.583,325.57 302.017,324.453 301.95,322.986C301.95,321.453 301.7,320.236 301.2,319.336C300.7,318.436 300.033,317.736 299.2,317.236C298.367,316.736 297.4,316.403 296.3,316.236C295.2,316.07 294.017,315.986 292.75,315.986C289.95,315.986 287.75,316.586 286.15,317.786C284.55,318.986 283.617,320.986 283.35,323.786L269.15,323.786ZM301.95,334.286C301.35,334.82 300.6,335.236 299.7,335.536C298.8,335.836 297.833,336.086 296.8,336.286C295.767,336.486 294.683,336.653 293.55,336.786C292.417,336.92 291.283,337.086 290.15,337.286C289.083,337.486 288.033,337.753 287,338.086C285.967,338.42 285.067,338.87 284.3,339.436C283.533,340.003 282.917,340.72 282.45,341.586C281.983,342.453 281.75,343.553 281.75,344.886C281.75,346.153 281.983,347.22 282.45,348.086C282.917,348.953 283.55,349.636 284.35,350.136C285.15,350.636 286.083,350.986 287.15,351.186C288.217,351.386 289.317,351.486 290.45,351.486C293.25,351.486 295.417,351.02 296.95,350.086C298.483,349.153 299.617,348.036 300.35,346.736C301.083,345.436 301.533,344.12 301.7,342.786C301.867,341.453 301.95,340.386 301.95,339.586L301.95,334.286Z"
   style="fill:rgb(35,31,32);fill-rule:nonzero;"
   id="path2" />
            <path
   d="M363.85,333.586C363.85,335.72 363.65,337.786 363.25,339.786C362.85,341.786 362.183,343.57 361.25,345.136C360.317,346.703 359.067,347.953 357.5,348.886C355.933,349.82 353.983,350.286 351.65,350.286C349.45,350.286 347.567,349.803 346,348.836C344.433,347.87 343.133,346.603 342.1,345.036C341.067,343.47 340.317,341.686 339.85,339.686C339.383,337.686 339.15,335.686 339.15,333.686C339.15,331.553 339.367,329.503 339.8,327.536C340.233,325.57 340.933,323.82 341.9,322.286C342.867,320.753 344.15,319.52 345.75,318.586C347.35,317.653 349.317,317.186 351.65,317.186C353.983,317.186 355.917,317.653 357.45,318.586C358.983,319.52 360.233,320.736 361.2,322.236C362.167,323.736 362.85,325.47 363.25,327.436C363.65,329.403 363.85,331.453 363.85,333.586ZM364.05,352.986L364.05,359.586L377.55,359.586L377.55,288.186L363.35,288.186L363.35,314.186L363.15,314.186C361.55,311.653 359.367,309.736 356.6,308.436C353.833,307.136 350.917,306.486 347.85,306.486C344.05,306.486 340.717,307.236 337.85,308.736C334.983,310.236 332.6,312.22 330.7,314.686C328.8,317.153 327.367,320.003 326.4,323.236C325.433,326.47 324.95,329.82 324.95,333.286C324.95,336.886 325.433,340.353 326.4,343.686C327.367,347.02 328.8,349.97 330.7,352.536C332.6,355.103 335.017,357.136 337.95,358.636C340.883,360.136 344.283,360.886 348.15,360.886C351.55,360.886 354.6,360.27 357.3,359.036C360,357.803 362.183,355.786 363.85,352.986L364.05,352.986Z"
   style="fill:rgb(35,31,32);fill-rule:nonzero;"
   id="path3" />
            <rect
   x="388.65"
   y="307.886"
   width="14.2"
   height="51.7"
   style="fill:rgb(35,31,32);"
   id="rect3" />
            <path
   d="M413.45,323.786C413.65,320.453 414.483,317.686 415.95,315.486C417.417,313.286 419.283,311.52 421.55,310.186C423.817,308.853 426.367,307.903 429.2,307.336C432.033,306.77 434.883,306.486 437.75,306.486C440.35,306.486 442.983,306.67 445.65,307.036C448.317,307.403 450.75,308.12 452.95,309.186C455.15,310.253 456.95,311.736 458.35,313.636C459.75,315.536 460.45,318.053 460.45,321.186L460.45,348.086C460.45,350.42 460.583,352.653 460.85,354.786C461.117,356.92 461.583,358.52 462.25,359.586L447.85,359.586C447.583,358.786 447.367,357.97 447.2,357.136C447.033,356.303 446.917,355.453 446.85,354.586C444.583,356.92 441.917,358.553 438.85,359.486C435.783,360.42 432.65,360.886 429.45,360.886C426.983,360.886 424.683,360.586 422.55,359.986C420.417,359.386 418.55,358.453 416.95,357.186C415.35,355.92 414.1,354.32 413.2,352.386C412.3,350.453 411.85,348.153 411.85,345.486C411.85,342.553 412.367,340.136 413.4,338.236C414.433,336.336 415.767,334.82 417.4,333.686C419.033,332.553 420.9,331.703 423,331.136C425.1,330.57 427.217,330.12 429.35,329.786C431.483,329.453 433.583,329.186 435.65,328.986C437.717,328.786 439.55,328.486 441.15,328.086C442.75,327.686 444.017,327.103 444.95,326.336C445.883,325.57 446.317,324.453 446.25,322.986C446.25,321.453 446,320.236 445.5,319.336C445,318.436 444.333,317.736 443.5,317.236C442.667,316.736 441.7,316.403 440.6,316.236C439.5,316.07 438.317,315.986 437.05,315.986C434.25,315.986 432.05,316.586 430.45,317.786C428.85,318.986 427.917,320.986 427.65,323.786L413.45,323.786ZM446.25,334.286C445.65,334.82 444.9,335.236 444,335.536C443.1,335.836 442.133,336.086 441.1,336.286C440.067,336.486 438.983,336.653 437.85,336.786C436.717,336.92 435.583,337.086 434.45,337.286C433.383,337.486 432.333,337.753 431.3,338.086C430.267,338.42 429.367,338.87 428.6,339.436C427.833,340.003 427.217,340.72 426.75,341.586C426.283,342.453 426.05,343.553 426.05,344.886C426.05,346.153 426.283,347.22 426.75,348.086C427.217,348.953 427.85,349.636 428.65,350.136C429.45,350.636 430.383,350.986 431.45,351.186C432.517,351.386 433.617,351.486 434.75,351.486C437.55,351.486 439.717,351.02 441.25,350.086C442.783,349.153 443.917,348.036 444.65,346.736C445.383,345.436 445.833,344.12 446,342.786C446.167,341.453 446.25,340.386 446.25,339.586L446.25,334.286Z"
   style="fill:rgb(35,31,32);fill-rule:nonzero;"
   id="path4" />
            <path
   d="M471.45,307.886L471.45,359.586L485.65,359.586L485.65,332.486C485.65,327.22 486.517,323.436 488.25,321.136C489.983,318.836 492.783,317.686 496.65,317.686C500.05,317.686 502.417,318.736 503.75,320.836C505.083,322.936 505.75,326.12 505.75,330.386L505.75,359.586L519.95,359.586L519.95,327.786C519.95,324.586 519.667,321.67 519.1,319.036C518.533,316.403 517.55,314.17 516.15,312.336C514.75,310.503 512.833,309.07 510.4,308.036C507.967,307.003 504.85,306.486 501.05,306.486C498.05,306.486 495.117,307.17 492.25,308.536C489.383,309.903 487.05,312.086 485.25,315.086L484.95,315.086L484.95,307.886L471.45,307.886Z"
   style="fill:rgb(35,31,32);fill-rule:nonzero;"
   id="path5" />
            <path
   d="M548.75,307.886L548.75,292.386L534.55,292.386L534.55,307.886L525.95,307.886L525.95,317.386L534.55,317.386L534.55,347.886C534.55,350.486 534.983,352.586 535.85,354.186C536.717,355.786 537.9,357.02 539.4,357.886C540.9,358.753 542.633,359.336 544.6,359.636C546.567,359.936 548.65,360.086 550.85,360.086C552.25,360.086 553.683,360.053 555.15,359.986C556.617,359.92 557.95,359.786 559.15,359.586L559.15,348.586C558.483,348.72 557.783,348.82 557.05,348.886C556.317,348.953 555.55,348.986 554.75,348.986C552.35,348.986 550.75,348.586 549.95,347.786C549.15,346.986 548.75,345.386 548.75,342.986L548.75,317.386L559.15,317.386L559.15,307.886L548.75,307.886Z"
   style="fill:rgb(35,31,32);fill-rule:nonzero;"
   id="path6" />
            <path
   d="M391.708,281.961L381.292,281.961L381.292,276.753C381.292,268.773 387.77,262.295 395.75,262.295C403.73,262.295 410.208,268.773 410.208,276.753L410.208,281.961L399.792,281.961L399.792,276.753C399.792,274.522 397.981,272.711 395.75,272.711C393.519,272.711 391.708,274.522 391.708,276.753L391.708,281.961Z"
   style="fill:rgb(64,187,143);"
   id="path7" />
            <path
   d="M386.877,249.44L381.924,251.05L378.703,241.143L383.656,239.533C387.466,238.295 391.53,237.624 395.75,237.624C399.97,237.624 404.034,238.295 407.844,239.533L412.797,241.143L409.576,251.05L404.623,249.44C401.828,248.531 398.846,248.041 395.75,248.041C392.654,248.041 389.672,248.531 386.877,249.44ZM418.979,259.884L415.914,255.673L424.335,249.542L427.4,253.753C432.103,260.211 434.879,268.16 434.879,276.753L434.879,281.961L424.462,281.961L424.462,276.753C424.462,270.451 422.428,264.62 418.979,259.884ZM367.038,276.753L367.038,281.961L356.621,281.961L356.621,276.753C356.621,268.16 359.397,260.211 364.1,253.753L367.165,249.542L375.586,255.673L372.521,259.884C369.072,264.62 367.038,270.451 367.038,276.753Z"
   style="fill:rgb(64,187,143);"
   id="path8" />
            <path
   d="M386.018,221.588L380.888,222.488L379.089,212.228L384.219,211.328C387.964,210.671 391.817,210.328 395.75,210.328C399.683,210.328 403.536,210.671 407.281,211.328L412.411,212.228L410.612,222.488L405.482,221.588C402.321,221.033 399.069,220.745 395.75,220.745C392.431,220.745 389.179,221.033 386.018,221.588ZM423.747,228.243L419.24,225.633L424.459,216.619L428.966,219.228C435.685,223.118 441.66,228.151 446.626,234.061L449.976,238.049L442,244.749L438.65,240.761C434.46,235.774 429.417,231.526 423.747,228.243ZM448.393,257.597L446.609,252.703L456.396,249.136L458.18,254.03C460.764,261.12 462.175,268.773 462.175,276.753L462.175,281.961L451.759,281.961L451.759,276.753C451.759,270.026 450.571,263.574 448.393,257.597ZM339.741,276.753L339.741,281.961L329.325,281.961L329.325,276.753C329.325,268.773 330.736,261.12 333.32,254.03L335.104,249.136L344.891,252.703L343.107,257.597C340.929,263.574 339.741,270.026 339.741,276.753ZM352.85,240.761L349.5,244.749L341.524,238.049L344.875,234.061C349.84,228.151 355.815,223.118 362.534,219.228L367.041,216.619L372.26,225.633L367.753,228.243C362.083,231.526 357.04,235.774 352.85,240.761Z"
   style="fill:rgb(64,187,143);"
   id="path9" />
            
            
            
            
            
            
            
            
            
            
            
            
            
            
            
            
            
            
            
            
            
            
            
        </g>
    </g>
</svg>
